<?xml version="1.0" encoding="UTF-8" standalone="no"?>
<svg
   width="507"
   height="570"
   viewBox="0 0 507 570"
   version="1.1"
   id="svg4"
   sodipodi:docname="trace.svg"
   inkscape:version="1.4 (86a8ad7, 2024-10-11)"
   xmlns:inkscape="http://www.inkscape.org/namespaces/inkscape"
   xmlns:sodipodi="http://sodipodi.sourceforge.net/DTD/sodipodi-0.dtd"
   xmlns="http://www.w3.org/2000/svg"
   xmlns:svg="http://www.w3.org/2000/svg">
  <defs
     id="defs4" />
  <sodipodi:namedview
     id="namedview4"
     pagecolor="#ffffff"
     bordercolor="#000000"
     borderopacity="0.25"
     inkscape:showpageshadow="2"
     inkscape:pageopacity="0.0"
     inkscape:pagecheckerboard="0"
     inkscape:deskcolor="#d1d1d1"
     inkscape:zoom="0.68601763"
     inkscape:cx="122.44583"
     inkscape:cy="375.35478"
     inkscape:window-width="1366"
     inkscape:window-height="745"
     inkscape:window-x="-8"
     inkscape:window-y="307"
     inkscape:window-maximized="1"
     inkscape:current-layer="svg4" />
  <path
     d="m 9.479,214 c 0,49.775 0.122,70.138 0.271,45.25 0.149,-24.887 0.149,-65.612 0,-90.5 C 9.601,143.863 9.479,164.225 9.479,214 m 23.529,78.75 0.007,10.75 8.168,2.275 c 52.098,14.513 114.956,59.612 155.567,111.614 2.25,2.881 2.25,2.881 4.494,-0.004 1.235,-1.587 6.423,-7.471 11.529,-13.076 l 9.284,-10.191 -5.862,-6.809 C 175.904,340.507 122.827,305.243 69.871,290.09 60.571,287.429 36.487,282 33.984,282 c -0.585,0 -0.981,4.361 -0.976,10.75 M 467.5,296.97803 C 369.43,302.39503 270.313,362.748 205.892,449.514 194.862,464.37 175,497.054 175,500.349 c 0,0.375 7.633,4.472 16.963,9.104 l 16.962,8.421 5.887,-10.687 C 263.369,419.043 343.359,351.282 436,319.814 448.129,315.694 473.873,309 477.588,309 c 1.783,0 2.283,-0.702 2.672,-3.75 1.41206,-11.70282 2.48311,-10.83276 -11.21389,-10.07576 M 35.013,328.191 c -3.986643,12.0354 -5.050131,20.75369 -3.327131,26.68069 1.509,5.19 4.172533,6.12742 15.591131,6.74531 15.217251,15.5272 81.247,58.195 110.737,99.582 6.539,9.177 5.781,8.968 9.486,2.625 1.65,-2.825 5.829,-9.163 9.286,-14.085 5.356,-7.625 6.099,-9.191 5.023,-10.593 C 145.241,391.465 97.191,353.416 46.5,331.999 41,329.675 36.163,327.573 35.75,327.328 c -0.413,-0.245 -0.744,0.143 -0.737,0.863 M 468,329.385 C 380.236,356.034 287.37,431.155 242.248,512 c -9.952,17.83 -10.322,15.674 3.738,21.748 l 11.984,5.178 10.265,-4.275 c 10.265,-4.274 10.265,-4.274 14.675,-11.713 41.881,-70.643 112.851,-139.345 179.858,-174.109 6.452,-3.348 12.013,-6.816 12.356,-7.708 1.119,-2.907 2.095,-14.122 1.224,-14.067 -0.466,0.029 -4.223,1.078 -8.348,2.331 m -11.426,47.326 c -47.176,32.178 -92.153,75.538 -127.862,123.268 -10.564,14.119 -11.211,13.89 8.406,2.971 66.618,-37.081 106.157,-75.986 127.838,-125.791 4.032,-9.261 4.503,-9.236 -8.382,-0.448 M 60.647,400.75 c 15.316,26.634 35.732,48.115 66.856,70.344 15.713,11.222 15.446,11.112 10.454,4.3 C 121.323,452.694 93.302,423.367 71.403,405.738 57.534,394.573 56.935,394.295 60.647,400.75"
     stroke="none"
     fill="#1f779e"
     fill-rule="evenodd"
     id="path2"
     sodipodi:nodetypes="cssccccscccccsccsssccsscccccsscccsccccccccccccccccccccc" />
  <path
     d="M 150.571,10.571 C 149.209,11.934 149,16.354 149,43.799 v 31.657 l -8.25,-8.122 c -29.868,-29.404 -34.096,-29.237 -33.543,1.329 0.526,29.071 2.931,33.467 29.795,54.462 l 11.997,9.375 v 9.363 l 0.001,9.363 -9.175,-9.694 C 110.394,110.434 107,109.996 107,137.298 c 0,31.422 2.618,36.652 29.25,58.422 L 149,206.143 v 8.929 c 0,10.597 0.422,10.363 -5.377,2.982 C 135.497,207.71 115.58,190 112.073,190 c -4.584,0 -5.074,2.053 -5.061,21.184 0.02,29.399 4.72,37.928 33.488,60.768 4.4,3.494 8.046,7.071 8.102,7.95 0.056,0.879 0.169,6.105 0.25,11.614 0.0502,3.39603 0.0867,7.64361 0.0637,9.81248 -0.0582,5.48653 10.92915,12.1509 12.64145,9.63042 C 161.91369,312.0448 162,302.205 162,293.697 v -15.469 l 14.709,-12.364 c 24.256,-20.389 25.41,-22.735 26.066,-52.98 0.655,-30.227 0.203,-30.349 -24.213,-6.519 L 162,222.53 v -8.136 -8.136 l 15.75,-13.467 C 201.431,172.543 203,169.168 203,138.482 c 0,-27.965 -5.207,-27.293 -34.121,4.399 l -6.621,7.257 -0.167,-8.477 c -0.188,-9.575 -2.281,-6.94 21.298,-26.822 C 200.525,100.389 203,94.245 203,66.151 203,47.012 202.739,46 197.806,46 194.415,46 173.007,63.518 166.293,71.787 L 162,77.075 V 44.692 c 0,-30.101 -0.129,-32.499 -1.829,-34.037 -2.313,-2.094 -7.544,-2.139 -9.6,-0.084 M 120.188,77.25 c 0.69,14.947 8.08,25.008 26.503,36.079 2.491,1.497 -1.476,-15.981 -5.392,-23.758 C 138.925,84.858 122.774,68 120.631,68 c -0.478,0 -0.678,4.162 -0.443,9.25 m 62.527,-3.467 c -16.726,13.639 -30.716,48.987 -14.465,36.551 17.341,-13.271 20.663,-18.191 21.475,-31.806 0.658,-11.017 0.671,-11.007 -7.01,-4.745 m -62.514,75.263 c 0.747,14.287 6.781,23.444 23.893,36.262 4.72,3.535 4.739,3.522 3.799,-2.424 -2.451,-15.502 -9.731,-27.864 -22.905,-38.894 l -5.283,-4.423 0.496,9.479 m 60.079,0.704 c -11.665,11.47 -19.46,27.231 -18.082,36.561 0.536,3.633 21.131,-14.274 24.985,-21.724 1.915,-3.702 4.066,-23.587 2.551,-23.587 -0.306,0 -4.561,3.938 -9.454,8.75 m 68.888,19.853 c -17.926,8.934 -17.385,37.491 0.85,44.788 l 4.051,1.62 -0.285,74.824 -0.284,74.824 6.25,-5.009 c 3.438,-2.755 6.25,-5.405 6.25,-5.888 0,-0.484 0.337,-0.67 0.75,-0.413 0.413,0.256 0.607,-3.759 0.432,-8.924 l -0.318,-9.39 17.08,-16.767 17.081,-16.768 0.069,-18.106 c 0.069,-18.107 0.069,-18.107 4.601,-21.895 12.762,-10.668 9.723,-29.234 -5.476,-33.455 -19.924,-5.533 -32.525,24.99 -14.223,34.454 3.004,1.553 3.004,1.553 3.004,17.295 v 15.741 l -11,10.966 -11,10.966 v -51.207 c 0,-51.208 0,-51.208 2.75,-52.651 28.284,-14.844 7.981,-59.238 -20.582,-45.005 m 5.658,12.109 c -8.885,5.512 -5.086,20.743 5.174,20.743 3.48,0 4.704,-0.56 7.102,-3.244 8.344,-9.338 -1.898,-23.937 -12.276,-17.499 m -134.613,40.569 c 0.321,6.145 1.119,10.617 2.361,13.234 3.864,8.142 25.426,28.131 25.426,23.571 0,-12.927 -5.622,-24.887 -17.316,-36.836 -11.177,-11.421 -11.07,-11.421 -10.471,0.031 m 59.951,0.469 c -11.262,11.097 -15.226,18.543 -15.96,29.976 l -0.492,7.666 10.549,-9.184 c 13.072,-11.38 14.825,-14.522 15.521,-27.824 0.594,-11.361 1.226,-11.319 -9.618,-0.634 M 291,242 c -2.987,2.987 -2.667,8.33 0.657,10.945 4.575,3.598 10.343,0.283 10.343,-5.945 0,-6.417 -6.589,-9.411 -11,-5 m -81.252,22.367 c -20.357,7.589 -20.81,37.402 -0.702,46.273 3.954,1.745 3.954,1.745 4.079,21.552 0.069,10.895 0.181,20.173 0.25,20.619 0.069,0.446 2.938,3.928 6.375,7.736 l 6.25,6.925 0.179,-5.986 c 0.098,-3.292 0.039,-16.224 -0.132,-28.736 -0.225,-16.42 0.003,-22.75 0.818,-22.75 2.204,0 9.484,-7.565 11.37,-11.814 8.503,-19.155 -9.737,-40.808 -28.487,-33.819 m 2.566,13.583 c -9.641,5.879 -5.684,20.05 5.598,20.05 9.833,0 13.102,-15.839 4.216,-20.434 -3.962,-2.049 -5.952,-1.971 -9.814,0.384"
     stroke="none"
     fill="#c98e29"
     fill-rule="evenodd"
     id="path3"
     sodipodi:nodetypes="csccccccccsccscsscscscscsccccccsccccssccscccccsccccccccccccccscccccccscccccscccscccscccsccccsccccccccccsccccsccccscccscc" />
  <path
     d="m 411.45,50.461 c -47.531,8.635 -71.018,37.921 -73.414,91.539 -1.494,33.442 -4.257,30.94 -7.516,-6.805 -4.152,-48.095 -28.811,-76.364 -71.783,-82.293 -10.83,-1.494 -10.271,-2.184 -10.069,12.431 0.571,41.482 22.186,71.271 61.013,84.085 8.182,2.701 8.182,2.701 11.389,10.391 8.573,20.555 7.93,13.32 7.93,89.181 v 67.64 l -3.75,1.756 c -21.664,10.144 -56.976,34.123 -79.279,53.835 l -9.529,8.422 -5.471,-6.971 C 185.827,316.156 113.294,272.787 44.75,262.327 L 33,260.534 v -62.071 -62.071 l 19.25,-7.601 c 10.588,-4.18 22.765,-8.837 27.061,-10.347 L 87.122,115.698 86.9,103.849 C 86.743,95.441 86.331,92 85.482,92 78.9,92 14.391,117.414 11.194,121.266 c -2.242,2.702 -1.166,199.46 1.155,211.234 19.488,98.84 79.461,160.497 210.307,216.211 37.286,15.876 33.11,15.501 58.029,5.218 140.186,-57.846 204.501,-123.403 221.043,-225.309 1.617,-9.959 3.325,-200.38 1.85,-206.116 -1.253,-4.869 -58.258,-31.157 -61.195,-28.22 -0.698,0.698 -5.336,18.68 -5.363,20.791 -0.014,1.091 3.131,2.737 10.23,5.356 5.637,2.08 15.538,6.277 22,9.325 L 481,135.3 v 72.35 c 0,72.35 0,72.35 -2.3,72.35 -33.634,0 -92.545,12.531 -128.622,27.36 -3.533,1.452 -6.714,2.64 -7.07,2.64 -2.48416,0 -1.04841,-15.24301 -1.43689,-27.76578 -0.1416,-4.56447 1.63018,-8.68617 2.98178,-11.65273 2.04654,-4.49185 3.02388,-2.61641 3.64311,-3.51949 12.37,-18.041 11.083,-17.036 22.329,-17.436 38.273,-1.362 62.666,-29.035 64.805,-73.522 l 0.404,-8.396 -11.617,0.599 c -42.679,2.201 -66.027,21.299 -69.589,56.92 -1.276,12.759 -5.261,22.988 -10.723,27.519 -2.953,2.451 -1.626,-71.563 1.486,-82.894 6.878,-25.044 11.288,-33.282 34.563,-64.566 15.709,-21.115 18.603,-23.462 5.05,-4.094 -23.14,33.065 -26.766,39.279 -31.286,53.61 -4.395,13.935 -4.48,13.869 10.458,8.108 38.25,-14.75 64.258,-56.609 60.492,-97.358 -1.743,-18.853 -0.47,-17.388 -13.118,-15.091 M 33.008,292.75 l 0.007,10.75 8.168,2.275 c 52.098,14.513 114.956,59.612 155.567,111.614 2.25,2.881 2.25,2.881 4.494,-0.004 1.235,-1.587 6.423,-7.471 11.529,-13.076 l 9.284,-10.191 -5.862,-6.809 C 175.904,340.507 122.827,305.243 69.871,290.09 60.571,287.429 36.487,282 33.984,282 c -0.585,0 -0.981,4.361 -0.976,10.75 m 436.03811,4.48572 C 370.97611,302.65272 270.313,362.748 205.892,449.514 194.862,464.37 175,497.054 175,500.349 c 0,0.375 7.633,4.472 16.963,9.104 l 16.962,8.421 5.887,-10.687 C 263.369,419.043 343.359,351.282 436,319.814 448.129,315.694 473.873,309 477.588,309 c 1.783,0 1.25226,-6.37107 1.64126,-9.41907 0.639,-5.003 1.96778,-3.3599 -11.72926,-2.6029 M 35.013,328.191 c 0.022,2.196 3.696,19.296 5.419,25.223 1.509,5.19 1.986,5.763 6.845,8.203 37.447,18.807 81.247,58.195 110.737,99.582 6.539,9.177 5.781,8.968 9.486,2.625 1.65,-2.825 5.829,-9.163 9.286,-14.085 5.356,-7.625 6.099,-9.191 5.023,-10.593 C 145.241,391.465 97.191,353.416 46.5,331.999 41,329.675 36.163,327.573 35.75,327.328 c -0.413,-0.245 -0.744,0.143 -0.737,0.863 M 468,329.385 C 380.236,356.034 287.37,431.155 242.248,512 c -9.952,17.83 -10.322,15.674 3.738,21.748 l 11.984,5.178 10.265,-4.275 c 10.265,-4.274 10.265,-4.274 14.675,-11.713 41.881,-70.643 112.851,-139.345 179.858,-174.109 6.452,-3.348 12.013,-6.816 12.356,-7.708 1.119,-2.907 2.095,-14.122 1.224,-14.067 -0.466,0.029 -4.223,1.078 -8.348,2.331 m -11.426,47.326 c -47.176,32.178 -92.153,75.538 -127.862,123.268 -10.564,14.119 -11.211,13.89 8.406,2.971 66.618,-37.081 106.157,-75.986 127.838,-125.791 4.032,-9.261 4.503,-9.236 -8.382,-0.448 M 60.647,400.75 c 15.316,26.634 35.732,48.115 66.856,70.344 15.713,11.222 15.446,11.112 10.454,4.3 C 121.323,452.694 93.302,423.367 71.403,405.738 57.534,394.573 56.935,394.295 60.647,400.75"
     stroke="none"
     fill="#094633"
     fill-rule="evenodd"
     id="path4"
     sodipodi:nodetypes="cccccccscssccccccccccsccccccsscccsscssscccccccccccccccccscccccsccsssccsscccccsscccsccccccccccccccccccccc" />
</svg>
